<svg width="188" height="222" viewBox="0 0 188 222" fill="none" xmlns="http://www.w3.org/2000/svg">
<path d="M60.2305 0.440122L82.123 0.0560271C112.869 -0.313813 138.618 0.479129 162.195 23.8548C204.681 65.9769 192.696 152.806 133.314 173.456C116.277 179.381 99.6963 178.207 81.9333 178.177C90.355 165.201 95.41 155.572 102.492 141.811C115.383 139.153 126.54 139.085 137.676 129.732C150.935 118.595 151.545 105.986 153.02 90.2708C123.202 86.9805 111.159 102.143 102.085 127.835C100.734 132.267 98.5233 138.386 93.9025 140.336L92.374 139.601C88.9338 133.868 92.0343 125.169 90.1863 117.771C87.8778 107.543 82.378 99.5498 73.4073 94.0135C66.2298 89.5836 49.8363 86.9242 45.616 96.7779C37.849 114.911 54.163 132.795 70.7823 137.823C75.571 139.272 81.6318 140.324 86.1468 142.35C86.614 146.014 84.2568 149.867 82.5738 152.995C79.81 158.135 76.6758 163.391 72.8005 167.765C62.1828 179.745 20.095 217.419 5.90576 221.357C3.86501 221.924 2.86076 221.83 1.08551 220.813C-0.46624 216.428 0.101519 197.9 0.100769 192.424L0.107521 147.101L0.0565264 93.5956C0.0542764 85.3106 0.0962661 77.0188 0.158516 68.7383C0.430766 32.7107 23.1288 3.65166 60.2305 0.440122Z" fill="#21A663"/>
<path d="M116.496 33.614C118.481 35.1564 121.204 42.1496 122.364 44.8788C125.793 52.9477 134.089 55.3633 141.854 58.274C123.646 66.0969 125.651 66.4915 117.169 83.7923C115.737 82.4847 111.533 73.2439 110.55 70.9011C107.427 63.4615 98.4941 60.9829 91.1021 58.3708C107.486 52.8209 110.537 49.7595 116.496 33.614Z" fill="#FED11A"/>
</svg>
