<svg width="746" height="222" viewBox="0 0 746 222" fill="none" xmlns="http://www.w3.org/2000/svg">
<path d="M82.123 0.0566406C112.869 -0.313198 138.618 0.479779 162.195 23.8555C204.68 65.9775 192.696 152.807 133.314 173.457C116.277 179.382 99.6965 178.208 81.9336 178.178C90.3553 165.201 95.4097 155.572 102.491 141.811C115.383 139.153 126.541 139.086 137.676 129.732C150.935 118.595 151.544 105.987 153.02 90.2715C123.202 86.9813 111.158 102.144 102.085 127.835C100.734 132.267 98.5231 138.386 93.9023 140.336L92.374 139.602C88.9339 133.868 92.0344 125.169 90.1865 117.771C87.878 107.543 82.378 99.55 73.4072 94.0137C66.2297 89.5839 49.8365 86.9247 45.6162 96.7783C37.8492 114.911 54.163 132.796 70.7822 137.824C75.5709 139.273 81.6315 140.324 86.1465 142.351C86.6136 146.014 84.2562 149.867 82.5732 152.995C79.8096 158.134 76.6759 163.391 72.8008 167.765C62.183 179.745 20.0945 217.42 5.90527 221.357C3.86492 221.924 2.86086 221.83 1.08594 220.813C-0.46577 216.429 0.101305 197.902 0.100586 192.425L0.107422 147.102L0.0566406 93.5957C0.0543916 85.3108 0.0959538 77.0187 0.158203 68.7383C0.430607 32.7109 23.1288 3.65195 60.2305 0.44043L82.123 0.0566406ZM116.495 33.6143C110.536 49.7597 107.485 52.8212 91.1016 58.3711C98.4936 60.9832 107.427 63.4618 110.55 70.9014C111.533 73.2442 115.736 82.4854 117.169 83.793C125.651 66.4923 123.646 66.0972 141.854 58.2744C134.089 55.3637 125.793 52.9478 122.363 44.8789C121.204 42.1496 118.48 35.1566 116.495 33.6143Z" fill="white"/>
<path d="M258.625 208L248.625 194.648H245.045V208H241.523V178.909H245.045V191.523H246.58L258.227 178.909H262.432L250.67 191.694L262.83 208H258.625ZM264.996 208V204.875H265.791C266.445 204.875 266.989 204.748 267.425 204.492C267.86 204.227 268.211 203.767 268.476 203.114C268.75 202.451 268.959 201.533 269.101 200.358C269.252 199.175 269.361 197.669 269.428 195.841L269.825 186.182H284.371V208H281.018V189.307H273.007L272.666 197.091C272.59 198.881 272.429 200.458 272.183 201.821C271.946 203.176 271.582 204.312 271.089 205.23C270.607 206.149 269.963 206.84 269.158 207.304C268.353 207.768 267.344 208 266.132 208H264.996ZM296.942 208.512C295.559 208.512 294.304 208.251 293.178 207.73C292.051 207.2 291.156 206.438 290.493 205.444C289.83 204.44 289.499 203.228 289.499 201.807C289.499 200.557 289.745 199.544 290.237 198.767C290.73 197.981 291.388 197.366 292.212 196.921C293.036 196.476 293.945 196.144 294.939 195.927C295.943 195.699 296.951 195.519 297.964 195.387C299.29 195.216 300.365 195.088 301.189 195.003C302.022 194.909 302.628 194.752 303.007 194.534C303.395 194.317 303.589 193.938 303.589 193.398V193.284C303.589 191.883 303.206 190.794 302.439 190.017C301.681 189.241 300.531 188.853 298.987 188.853C297.387 188.853 296.132 189.203 295.223 189.904C294.314 190.605 293.675 191.353 293.305 192.148L290.124 191.012C290.692 189.686 291.449 188.654 292.396 187.915C293.353 187.167 294.394 186.646 295.521 186.353C296.658 186.05 297.775 185.898 298.874 185.898C299.574 185.898 300.379 185.983 301.288 186.154C302.207 186.315 303.092 186.651 303.945 187.162C304.806 187.674 305.521 188.445 306.089 189.478C306.658 190.51 306.942 191.892 306.942 193.625V208H303.589V205.046H303.419C303.192 205.519 302.813 206.026 302.283 206.566C301.752 207.105 301.047 207.565 300.166 207.944C299.286 208.322 298.211 208.512 296.942 208.512ZM297.453 205.5C298.779 205.5 299.896 205.24 300.805 204.719C301.724 204.198 302.415 203.526 302.879 202.702C303.353 201.878 303.589 201.012 303.589 200.103V197.034C303.447 197.205 303.135 197.361 302.652 197.503C302.179 197.636 301.629 197.754 301.004 197.858C300.389 197.953 299.787 198.038 299.2 198.114C298.623 198.18 298.154 198.237 297.794 198.284C296.923 198.398 296.108 198.583 295.351 198.838C294.603 199.085 293.997 199.459 293.533 199.961C293.078 200.453 292.851 201.125 292.851 201.978C292.851 203.142 293.282 204.023 294.143 204.62C295.015 205.207 296.118 205.5 297.453 205.5ZM321.924 208.455C319.879 208.455 318.117 207.972 316.64 207.006C315.163 206.04 314.026 204.71 313.231 203.015C312.435 201.319 312.038 199.383 312.038 197.205C312.038 194.989 312.445 193.034 313.259 191.338C314.083 189.634 315.229 188.303 316.697 187.347C318.174 186.381 319.897 185.898 321.867 185.898C323.401 185.898 324.784 186.182 326.015 186.75C327.246 187.319 328.254 188.114 329.04 189.137C329.826 190.159 330.314 191.353 330.504 192.716H327.151C326.896 191.722 326.327 190.841 325.447 190.074C324.576 189.298 323.401 188.909 321.924 188.909C320.617 188.909 319.471 189.25 318.487 189.932C317.511 190.605 316.749 191.556 316.2 192.787C315.66 194.009 315.39 195.444 315.39 197.091C315.39 198.777 315.655 200.245 316.185 201.495C316.725 202.745 317.483 203.715 318.458 204.407C319.443 205.098 320.598 205.444 321.924 205.444C322.795 205.444 323.586 205.292 324.296 204.989C325.006 204.686 325.608 204.25 326.1 203.682C326.593 203.114 326.943 202.432 327.151 201.637H330.504C330.314 202.925 329.845 204.085 329.097 205.117C328.359 206.14 327.379 206.954 326.157 207.56C324.945 208.157 323.534 208.455 321.924 208.455ZM344.268 208.455C342.222 208.455 340.461 207.972 338.984 207.006C337.506 206.04 336.37 204.71 335.575 203.015C334.779 201.319 334.381 199.383 334.381 197.205C334.381 194.989 334.789 193.034 335.603 191.338C336.427 189.634 337.573 188.303 339.04 187.347C340.518 186.381 342.241 185.898 344.211 185.898C345.745 185.898 347.128 186.182 348.359 186.75C349.59 187.319 350.598 188.114 351.384 189.137C352.17 190.159 352.658 191.353 352.847 192.716H349.495C349.239 191.722 348.671 190.841 347.79 190.074C346.919 189.298 345.745 188.909 344.268 188.909C342.961 188.909 341.815 189.25 340.83 189.932C339.855 190.605 339.093 191.556 338.543 192.787C338.004 194.009 337.734 195.444 337.734 197.091C337.734 198.777 337.999 200.245 338.529 201.495C339.069 202.745 339.826 203.715 340.802 204.407C341.787 205.098 342.942 205.444 344.268 205.444C345.139 205.444 345.93 205.292 346.64 204.989C347.35 204.686 347.951 204.25 348.444 203.682C348.936 203.114 349.287 202.432 349.495 201.637H352.847C352.658 202.925 352.189 204.085 351.441 205.117C350.702 206.14 349.722 206.954 348.501 207.56C347.289 208.157 345.878 208.455 344.268 208.455ZM372.35 195.557V198.682H360.305V195.557H372.35ZM361.1 186.182V208H357.748V186.182H361.1ZM374.907 186.182V208H371.555V186.182H374.907ZM383.927 194.08H390.177C392.734 194.08 394.689 194.729 396.043 196.026C397.397 197.323 398.075 198.966 398.075 200.955C398.075 202.262 397.772 203.45 397.165 204.52C396.559 205.581 395.669 206.428 394.495 207.063C393.321 207.688 391.881 208 390.177 208H381.029V186.182H384.381V204.875H390.177C391.503 204.875 392.592 204.525 393.444 203.824C394.296 203.123 394.722 202.224 394.722 201.125C394.722 199.97 394.296 199.028 393.444 198.299C392.592 197.569 391.503 197.205 390.177 197.205H383.927V194.08ZM401.54 208V186.182H404.893V208H401.54ZM414.381 203.057L424.893 186.182H428.756V208H425.404V191.125L414.95 208H411.029V186.182H414.381V203.057ZM422.677 178.909H425.802C425.802 180.444 425.272 181.698 424.211 182.674C423.15 183.649 421.711 184.137 419.893 184.137C418.103 184.137 416.678 183.649 415.617 182.674C414.566 181.698 414.04 180.444 414.04 178.909H417.165C417.165 179.648 417.369 180.297 417.776 180.855C418.193 181.414 418.898 181.694 419.893 181.694C420.887 181.694 421.597 181.414 422.023 180.855C422.459 180.297 422.677 179.648 422.677 178.909ZM462.964 186.182V208H459.612V186.182H462.964ZM461.658 196.58V199.705C460.9 199.989 460.147 200.24 459.399 200.458C458.651 200.666 457.865 200.832 457.041 200.955C456.217 201.069 455.313 201.125 454.328 201.125C451.857 201.125 449.873 200.458 448.376 199.123C446.89 197.787 446.146 195.784 446.146 193.114V186.125H449.499V193.114C449.499 194.231 449.712 195.15 450.138 195.87C450.564 196.589 451.142 197.124 451.871 197.475C452.6 197.825 453.419 198 454.328 198C455.749 198 457.032 197.873 458.178 197.617C459.333 197.352 460.493 197.006 461.658 196.58ZM475.536 208.512C474.153 208.512 472.898 208.251 471.771 207.73C470.644 207.2 469.75 206.438 469.087 205.444C468.424 204.44 468.092 203.228 468.092 201.807C468.092 200.557 468.339 199.544 468.831 198.767C469.323 197.981 469.982 197.366 470.805 196.921C471.629 196.476 472.538 196.144 473.533 195.927C474.536 195.699 475.545 195.519 476.558 195.387C477.884 195.216 478.959 195.088 479.783 195.003C480.616 194.909 481.222 194.752 481.601 194.534C481.989 194.317 482.183 193.938 482.183 193.398V193.284C482.183 191.883 481.8 190.794 481.033 190.017C480.275 189.241 479.125 188.853 477.581 188.853C475.981 188.853 474.726 189.203 473.817 189.904C472.908 190.605 472.268 191.353 471.899 192.148L468.717 191.012C469.286 189.686 470.043 188.654 470.99 187.915C471.946 187.167 472.988 186.646 474.115 186.353C475.251 186.05 476.369 185.898 477.467 185.898C478.168 185.898 478.973 185.983 479.882 186.154C480.801 186.315 481.686 186.651 482.538 187.162C483.4 187.674 484.115 188.445 484.683 189.478C485.251 190.51 485.536 191.892 485.536 193.625V208H482.183V205.046H482.013C481.786 205.519 481.407 206.026 480.876 206.566C480.346 207.105 479.641 207.565 478.76 207.944C477.879 208.322 476.804 208.512 475.536 208.512ZM476.047 205.5C477.373 205.5 478.49 205.24 479.399 204.719C480.318 204.198 481.009 203.526 481.473 202.702C481.946 201.878 482.183 201.012 482.183 200.103V197.034C482.041 197.205 481.729 197.361 481.246 197.503C480.772 197.636 480.223 197.754 479.598 197.858C478.982 197.953 478.381 198.038 477.794 198.114C477.216 198.18 476.748 198.237 476.388 198.284C475.517 198.398 474.702 198.583 473.945 198.838C473.196 199.085 472.59 199.459 472.126 199.961C471.672 200.453 471.445 201.125 471.445 201.978C471.445 203.142 471.875 204.023 472.737 204.62C473.608 205.207 474.712 205.5 476.047 205.5ZM500.518 208.455C498.472 208.455 496.711 207.972 495.234 207.006C493.756 206.04 492.62 204.71 491.825 203.015C491.029 201.319 490.631 199.383 490.631 197.205C490.631 194.989 491.039 193.034 491.853 191.338C492.677 189.634 493.823 188.303 495.29 187.347C496.768 186.381 498.491 185.898 500.461 185.898C501.995 185.898 503.378 186.182 504.609 186.75C505.84 187.319 506.848 188.114 507.634 189.137C508.42 190.159 508.908 191.353 509.097 192.716H505.745C505.489 191.722 504.921 190.841 504.04 190.074C503.169 189.298 501.995 188.909 500.518 188.909C499.211 188.909 498.065 189.25 497.08 189.932C496.105 190.605 495.343 191.556 494.793 192.787C494.254 194.009 493.984 195.444 493.984 197.091C493.984 198.777 494.249 200.245 494.779 201.495C495.319 202.745 496.076 203.715 497.052 204.407C498.037 205.098 499.192 205.444 500.518 205.444C501.389 205.444 502.18 205.292 502.89 204.989C503.6 204.686 504.201 204.25 504.694 203.682C505.186 203.114 505.537 202.432 505.745 201.637H509.097C508.908 202.925 508.439 204.085 507.691 205.117C506.952 206.14 505.972 206.954 504.751 207.56C503.539 208.157 502.128 208.455 500.518 208.455Z" fill="white"/>
<path d="M240 151V66.0404H273.12C279.6 66.0404 285.24 67.0404 290.04 69.0404C294.92 70.9604 298.68 74.0804 301.32 78.4004C303.96 82.6404 305.28 88.3204 305.28 95.4404C305.28 102.08 303.8 107.64 300.84 112.12C297.96 116.6 294 119.96 288.96 122.2C283.92 124.36 278.2 125.44 271.8 125.44H257.16V151H240ZM257.16 110.08H271.56C276.68 110.08 280.72 108.88 283.68 106.48C286.72 104 288.24 100.28 288.24 95.3204C288.24 90.9204 286.96 87.6004 284.4 85.3604C281.92 83.1204 277.92 82.0004 272.4 82.0004H257.16V110.08ZM315.998 151V66.0404H332.798V151H315.998ZM366.156 151.84C363.276 151.84 360.476 151.48 357.756 150.76C355.116 149.96 352.756 148.76 350.676 147.16C348.596 145.56 346.956 143.56 345.756 141.16C344.556 138.76 343.956 135.96 343.956 132.76C343.956 128.44 344.836 125 346.596 122.44C348.356 119.8 350.716 117.8 353.676 116.44C356.636 115.08 360.036 114.16 363.876 113.68C367.796 113.2 371.836 112.96 375.996 112.96H385.116C385.116 110.64 384.676 108.6 383.796 106.84C382.996 105 381.756 103.6 380.076 102.64C378.396 101.6 376.236 101.08 373.596 101.08C371.916 101.08 370.276 101.32 368.676 101.8C367.156 102.2 365.876 102.8 364.836 103.6C363.796 104.4 363.116 105.44 362.796 106.72H345.756C346.236 103.2 347.356 100.2 349.116 97.7204C350.876 95.1604 353.076 93.0804 355.716 91.4804C358.356 89.8804 361.236 88.7204 364.356 88.0004C367.556 87.2004 370.836 86.8004 374.196 86.8004C383.396 86.8004 390.196 89.4404 394.596 94.7204C398.996 99.9204 401.196 107.32 401.196 116.92V151H386.076L385.836 142.84C383.836 145.64 381.556 147.68 378.996 148.96C376.516 150.24 374.116 151.04 371.796 151.36C369.476 151.68 367.596 151.84 366.156 151.84ZM369.996 138.52C372.796 138.52 375.356 137.96 377.676 136.84C379.996 135.72 381.836 134.2 383.196 132.28C384.556 130.36 385.236 128.2 385.236 125.8V124.24H373.716C372.036 124.24 370.396 124.32 368.796 124.48C367.276 124.64 365.876 124.96 364.596 125.44C363.396 125.84 362.436 126.52 361.716 127.48C360.996 128.44 360.636 129.72 360.636 131.32C360.636 132.92 361.036 134.28 361.836 135.4C362.716 136.44 363.876 137.24 365.316 137.8C366.756 138.28 368.316 138.52 369.996 138.52ZM414.319 151V87.7604H430.039L430.879 95.0804C432.639 92.9204 434.639 91.2404 436.879 90.0404C439.199 88.7604 441.519 87.8804 443.839 87.4004C446.239 86.9204 448.399 86.6804 450.319 86.6804C456.399 86.6804 461.119 88.0004 464.479 90.6404C467.919 93.2804 470.359 96.8404 471.799 101.32C473.319 105.72 474.079 110.64 474.079 116.08V151H457.279V118.24C457.279 116.32 457.119 114.4 456.799 112.48C456.479 110.56 455.879 108.8 454.999 107.2C454.199 105.6 453.039 104.32 451.519 103.36C449.999 102.4 447.999 101.92 445.519 101.92C442.319 101.92 439.639 102.72 437.479 104.32C435.319 105.92 433.719 108.08 432.679 110.8C431.639 113.52 431.119 116.52 431.119 119.8V151H414.319ZM500.535 151L480.615 87.7604H498.975L510.735 131.8L523.215 87.7604H542.055L554.535 131.8L566.055 87.7604H584.175L564.255 151H544.935L532.335 108.28L519.855 151H500.535ZM591.038 151V87.7604H607.838V151H591.038ZM599.438 81.4004C596.318 81.4004 593.798 80.4804 591.878 78.6404C589.958 76.7204 588.998 74.2804 588.998 71.3204C588.998 68.2004 589.998 65.6804 591.998 63.7604C593.998 61.8404 596.518 60.8804 599.558 60.8804C602.358 60.8804 604.758 61.8404 606.758 63.7604C608.838 65.6004 609.878 68.0804 609.878 71.2004C609.878 74.2404 608.878 76.7204 606.878 78.6404C604.958 80.4804 602.478 81.4004 599.438 81.4004ZM645.875 151.84C642.915 151.84 639.875 151.52 636.755 150.88C633.635 150.24 630.755 149.16 628.115 147.64C625.475 146.04 623.235 143.92 621.395 141.28C619.555 138.56 618.355 135.2 617.795 131.2H634.835C635.315 132.64 636.155 133.88 637.355 134.92C638.635 135.96 640.075 136.72 641.675 137.2C643.355 137.68 645.035 137.92 646.715 137.92C647.835 137.92 648.955 137.84 650.075 137.68C651.195 137.52 652.235 137.2 653.195 136.72C654.155 136.24 654.915 135.64 655.475 134.92C656.035 134.12 656.315 133.12 656.315 131.92C656.315 130.64 655.915 129.64 655.115 128.92C654.315 128.2 653.195 127.64 651.755 127.24C650.315 126.76 648.675 126.32 646.835 125.92C643.555 125.2 640.035 124.4 636.275 123.52C632.515 122.64 629.275 121.36 626.555 119.68C625.435 118.88 624.435 118 623.555 117.04C622.675 116.08 621.955 115 621.395 113.8C620.835 112.6 620.395 111.36 620.075 110.08C619.755 108.72 619.595 107.28 619.595 105.76C619.595 102.32 620.315 99.4004 621.755 97.0004C623.275 94.5204 625.275 92.5204 627.755 91.0004C630.235 89.4804 632.995 88.4004 636.035 87.7604C639.075 87.0404 642.195 86.6804 645.395 86.6804C649.715 86.6804 653.715 87.4004 657.395 88.8404C661.075 90.2004 664.115 92.3604 666.515 95.3204C668.915 98.2004 670.395 101.96 670.955 106.6H654.875C654.555 104.84 653.475 103.44 651.635 102.4C649.795 101.28 647.515 100.72 644.795 100.72C643.835 100.72 642.795 100.8 641.675 100.96C640.635 101.12 639.675 101.4 638.795 101.8C637.915 102.2 637.195 102.76 636.635 103.48C636.075 104.12 635.795 105 635.795 106.12C635.795 107 636.035 107.8 636.515 108.52C637.075 109.24 637.835 109.84 638.795 110.32C639.835 110.8 641.075 111.24 642.515 111.64C645.235 112.28 647.955 112.88 650.675 113.44C653.475 113.92 655.955 114.44 658.115 115C660.755 115.56 663.155 116.48 665.315 117.76C667.555 119.04 669.355 120.8 670.715 123.04C672.155 125.2 672.875 128.04 672.875 131.56C672.875 135.56 672.075 138.88 670.475 141.52C668.875 144.08 666.715 146.12 663.995 147.64C661.355 149.16 658.435 150.24 655.235 150.88C652.115 151.52 648.995 151.84 645.875 151.84ZM711.598 151.84C704.958 151.84 699.318 150.52 694.678 147.88C690.038 145.24 686.478 141.52 683.998 136.72C681.518 131.84 680.278 126.16 680.278 119.68C680.278 113.12 681.558 107.4 684.118 102.52C686.678 97.5604 690.278 93.6804 694.918 90.8804C699.638 88.0804 705.198 86.6804 711.598 86.6804C716.398 86.6804 720.598 87.4804 724.198 89.0804C727.878 90.6804 730.958 92.9204 733.438 95.8004C735.998 98.6804 737.878 102.04 739.078 105.88C740.358 109.64 740.958 113.72 740.878 118.12C740.878 119.24 740.838 120.32 740.758 121.36C740.678 122.4 740.518 123.44 740.278 124.48H696.958C697.198 126.88 697.878 129.08 698.998 131.08C700.118 133.08 701.678 134.68 703.678 135.88C705.758 137 708.318 137.56 711.358 137.56C713.358 137.56 715.198 137.36 716.878 136.96C718.558 136.48 719.998 135.76 721.198 134.8C722.398 133.84 723.238 132.72 723.718 131.44H740.278C739.238 136.16 737.278 140.04 734.398 143.08C731.598 146.12 728.198 148.36 724.198 149.8C720.198 151.16 715.998 151.84 711.598 151.84ZM697.318 112.72H724.798C724.718 110.56 724.158 108.56 723.118 106.72C722.158 104.8 720.678 103.28 718.678 102.16C716.758 100.96 714.278 100.36 711.238 100.36C708.198 100.36 705.638 100.96 703.558 102.16C701.558 103.36 700.038 104.92 698.998 106.84C698.038 108.68 697.478 110.64 697.318 112.72Z" fill="white"/>
</svg>
