<svg width="48" height="48" viewBox="0 0 48 48" fill="none" xmlns="http://www.w3.org/2000/svg">
<rect width="48" height="48" fill="#EDFBF4"/>
<path d="M18.9589 6.07277L22.5788 6.00926C27.6626 5.94811 31.92 6.07922 35.8185 9.94432C42.8433 16.9091 40.8616 31.266 31.0431 34.6805C28.226 35.6601 25.4845 35.466 22.5474 35.4611C23.9399 33.3154 24.7757 31.7233 25.9467 29.4479C28.0783 29.0085 29.923 28.9973 31.7642 27.4508C33.9566 25.6093 34.0574 23.5245 34.3013 20.926C29.3711 20.382 27.3797 22.8891 25.8794 27.1371C25.6561 27.8699 25.2905 28.8817 24.5265 29.2041L24.2738 29.0826C23.7049 28.1346 24.2176 26.6962 23.912 25.4731C23.5303 23.7819 22.621 22.4603 21.1377 21.5448C19.9509 20.8124 17.2403 20.3727 16.5425 22.0019C15.2582 25.0001 17.9557 27.9572 20.7036 28.7887C21.4954 29.0282 22.4976 29.2021 23.2441 29.5371C23.3214 30.1429 22.9316 30.78 22.6533 31.2973C22.1963 32.1471 21.6781 33.0162 21.0373 33.7394C19.2817 35.7203 12.3226 41.9496 9.9765 42.6007C9.63907 42.6945 9.47302 42.6788 9.17949 42.5108C8.92291 41.7858 9.01679 38.7222 9.01666 37.8167L9.01778 30.3227L9.00935 21.4757C9.00897 20.1058 9.01592 18.7348 9.02621 17.3657C9.07123 11.4086 12.8243 6.60379 18.9589 6.07277Z" fill="#21A663"/>
<path d="M28.2622 11.558C28.5905 11.813 29.0407 12.9693 29.2325 13.4206C29.7996 14.7548 31.1712 15.1542 32.4551 15.6354C29.4445 16.9289 29.776 16.9942 28.3736 19.8548C28.1367 19.6386 27.4416 18.1107 27.2791 17.7233C26.7627 16.4932 25.2857 16.0834 24.0635 15.6514C26.7725 14.7338 27.277 14.2276 28.2622 11.558Z" fill="#FED11A"/>
</svg>
