<svg width="48" height="48" viewBox="0 0 48 48" fill="none" xmlns="http://www.w3.org/2000/svg">
<rect width="48" height="48" rx="16" fill="#EDFBF4"/>
<path d="M18.9589 6.07277L22.5788 6.00926C27.6626 5.94811 31.92 6.07922 35.8185 9.94432C42.8433 16.9091 40.8616 31.266 31.0431 34.6805C30.0319 35.0321 29.0305 35.2325 28.0263 35.3447C25.6762 35.6073 24.1599 32.8764 25.2562 30.7812C25.6747 29.9815 26.4615 29.3457 27.3511 29.193C28.9118 28.925 30.3391 28.6478 31.7642 27.4508C34.838 24.8689 30.2888 20.0869 27.8275 23.258C27.0349 24.2791 26.4247 25.5931 25.8794 27.1371C25.6713 27.82 25.3397 28.7452 24.6771 29.1289C24.5845 29.1826 24.4712 29.1775 24.3747 29.1311C24.3088 29.0995 24.2527 29.0498 24.2196 28.9847C23.7387 28.0374 24.2072 26.6548 23.912 25.4731C23.5303 23.7819 22.621 22.4603 21.1377 21.5448C19.9509 20.8124 17.2403 20.3727 16.5425 22.0019C15.2582 25.0001 17.9557 27.9572 20.7036 28.7887C20.9352 28.8587 21.1848 28.9232 21.4407 28.9877C22.5777 29.2742 23.2088 30.2647 22.6533 31.2973C22.1963 32.1471 21.6781 33.0162 21.0373 33.7394C19.2817 35.7203 12.3226 41.9496 9.9765 42.6007C9.45936 42.7444 9.09302 42.2266 9.05245 41.6914C8.9612 40.4877 9.01676 38.5134 9.01666 37.8167L9.01778 30.3227L9.00935 21.4757C9.00897 20.1058 9.01592 18.7348 9.02621 17.3657C9.07123 11.4086 12.8243 6.60379 18.9589 6.07277Z" fill="#21A663"/>
<path d="M27.4702 13.381C27.956 12.5242 28.806 12.398 29.1849 13.3072C29.2021 13.3485 29.218 13.3865 29.2325 13.4206C29.2379 13.4333 29.2434 13.446 29.249 13.4586C29.8346 14.7824 30.1495 16.4574 29.4241 17.7101C28.8873 18.6371 27.8174 18.9393 27.3822 17.9605C27.3384 17.8619 27.303 17.7803 27.2791 17.7233C26.777 16.5274 26.6387 14.6985 27.3359 13.6047C27.3815 13.5332 27.4262 13.4587 27.4702 13.381Z" fill="#FED11A"/>
</svg>
